<?xml version="1.0" encoding="UTF-8" standalone="no"?><!DOCTYPE svg PUBLIC "-//W3C//DTD SVG 1.1//EN" "http://www.w3.org/Graphics/SVG/1.1/DTD/svg11.dtd">
<svg width="100%" height="100%" viewBox="0 0 4330 4330" version="1.1"
    xmlns="http://www.w3.org/2000/svg"
    xmlns:xlink="http://www.w3.org/1999/xlink" xml:space="preserve"
    xmlns:serif="http://www.serif.com/" style="fill-rule:evenodd;clip-rule:evenodd;stroke-linecap:round;stroke-linejoin:round;stroke-miterlimit:1.5;">
    <rect id="Artboard1" x="0" y="0" width="4329.95" height="4329.95" style="fill:none;"/>
    <clipPath id="_clip1">
        <rect x="0" y="0" width="4329.95" height="4329.95"/>
    </clipPath>
    <g clip-path="url(#_clip1)">
        <g id="Layer1">
            <g>
                <path d="M2911.95,3308.97l193.122,-488.455l-375.822,-102.041l-120.204,407.624" style="fill:#fff;"/>
                <path d="M2674.23,2888.58c49.887,-71.438 57.992,-299.263 44.415,-370.616c-19.859,-104.372 -41.675,-167.794 -142.06,-238.473c-100.386,-70.68 -193.427,-146.905 -313.41,-171.147c-168.781,-34.1 -297.426,18.104 -371.03,58.201c-73.603,40.097 224.039,921.157 224.039,921.157l304.375,122.548c-0,0 -3.451,-98.06 168.266,-82.689c216.553,19.384 299.827,169.031 299.827,169.031" style="fill:#fff;stroke:#000;stroke-width:41.67px;"/>
            </g>
            <g>
                <path d="M1764.33,1057.53l-1015.79,0.092l805.719,1783.57" style="fill:none;stroke:#000;stroke-width:95.83px;stroke-linejoin:miter;stroke-miterlimit:8;"/>
                <path d="M2534.03,1057.45l1047.38,0.164l-668.089,1486.54" style="fill:none;stroke:#000;stroke-width:95.83px;stroke-linejoin:miter;stroke-miterlimit:8;"/>
                <path d="M1804.62,3453.76l339.445,711.98l381.268,-774.044" style="fill:none;stroke:#000;stroke-width:95.83px;stroke-linejoin:miter;stroke-miterlimit:8;"/>
            </g>
            <path class="pala" d="M1940.25,1751.09c-0,-0 48.776,362.161 67.678,731.182c12.525,244.507 -38.859,453.437 -58.306,483.918c-48.798,76.482 -240.489,30.832 -304.267,117.605c-63.778,86.773 2.653,127.997 130.025,172.472c127.372,44.475 574.836,93.271 652.661,-39.751c36.049,-61.615 18.742,-254.684 0,-353.22c-36.962,-194.333 -55.716,-397.779 -61.768,-572.002c-6.051,-174.223 0,-535.853 0,-535.853l-426.023,-4.351Z" style="fill:#fff;stroke:#000;stroke-width:41.67px;"/>
            <g id="beer" class="beer">
                <clipPath id="_clip2">
                    <path d="M1939.56,1756.81c0,0 10.397,-346.447 0,-570.569c-10.397,-224.121 -210.679,-626.872 -298.874,-1137.94c421.394,2.717 882.649,2.787 1024.15,0c-88.195,511.066 -288.477,913.817 -298.874,1137.94c-10.397,224.122 -3.943,332.627 0,570.569c0.093,5.577 4.489,43.996 -213.202,43.996c-247.154,0 -213.203,-43.996 -213.203,-43.996Z"/>
                </clipPath>
                <g clip-path="url(#_clip2)" class='beerContent'>
                    <rect x="1560.26" y="167.007" width="1172.14" height="1693.95" style="fill:#e5bd35;"/>
                </g>
                <clipPath id="_clip3">
                    <path d="M1939.56,1581.24c0,0 10.397,-390.667 0,-577.53c-10.397,-186.862 -210.679,-522.658 -298.874,-948.762c421.394,2.265 882.649,2.323 1024.15,-0c-88.195,426.104 -288.477,761.9 -298.874,948.762c-10.397,186.863 -3.943,379.145 0,577.53c0.185,9.297 -426.405,0 -426.405,0Z"/>
                </clipPath>
                <g clip-path="url(#_clip3)">
                    <path d="M2779.27,52.923l-1232.57,0l0,148.544c0,0 217.037,50.524 306.572,50.524c97.04,0 295.745,-46.871 492.748,-50.524c219.685,-4.073 433.246,0 433.246,0l0,-148.544Z" style="fill:#fff;"/>
                </g>
            </g>
            <path d="M1939.56,1742.18c0,0 10.397,-429.968 0,-635.628c-10.397,-205.661 -210.679,-575.237 -298.874,-1044.21c421.394,2.493 882.649,2.557 1024.15,0c-88.195,468.97 -288.477,838.546 -298.874,1044.21c-10.397,205.66 -3.943,417.286 0,635.628c0.093,5.118 4.488,39.477 -213.202,40.373c-228.274,0.938 -213.203,-40.373 -213.203,-40.373Z" style="fill:none;stroke:#000;stroke-width:41.67px;"/>
            <g>
                <path d="M1738.71,2302.79c-11.797,63.001 113.483,138.021 113.483,138.021c0,-0 -80.54,-23.548 -88.815,75.764c-8.274,99.311 69.845,95.042 69.845,95.042c0,-0 -50.603,11.589 -59.075,71.358c-8.472,59.769 30.131,107.425 30.131,107.425c0,-0 -78.329,18.838 -82.037,62.126c-3.708,43.288 2.413,105.402 129.951,135.326c127.539,29.923 197.092,-23.078 211.323,-81.41c14.232,-58.331 11.922,-63.558 11.922,-63.558l-271.159,-52.484l288.157,55.523c-0,-0 58.454,17.703 83.837,11.129c25.382,-6.574 78.312,-23.428 87.622,-87.842c9.311,-64.413 -43.874,-89.388 -79.583,-94.669c-23.909,-3.536 -351.089,-62.924 -351.089,-62.924l351.089,62.924c0,-0 105.186,22.652 109.836,-63.945c4.651,-86.596 -78.986,-90.767 -109.836,-94.021c-30.849,-3.255 -205.293,-39.607 -216.1,-41.588c-10.807,-1.981 -54.25,-13.203 -69.855,-17.184c-15.605,-3.982 -46.164,-16.992 -46.164,-16.992l61.794,20.989l134.023,28.816c0,0 59.136,-3.556 77.452,-58.859c18.315,-55.302 7.852,-81.102 -20.567,-91.399c-28.418,-10.298 -110.289,-112.016 -110.289,-112.016c0,0 -9.364,-46.119 -13.792,-113.979c-0.073,-1.114 -34.016,18.219 -82.457,48.537c-68.535,42.893 -152.735,102.979 -159.647,139.89Z" style="fill:#fff;stroke:#000;stroke-width:41.67px;"/>
                <g>
                    <clipPath id="_clip4">
                        <path d="M1653.09,1572.83c-0,0 49.536,476.739 68.438,862.894c12.525,255.86 -38.859,474.491 -58.306,506.387c-48.799,80.033 45.917,34.295 -17.861,125.097c-63.778,90.801 2.653,133.94 130.025,180.48c127.372,46.54 574.836,97.601 652.661,-41.597c36.049,-64.476 18.742,-266.509 0,-369.62c-25.561,-140.631 -2.423,-242.963 -39.119,-380.141c-3.746,-14.006 4.668,-34.815 12.154,-47.651c3.53,-6.053 5.738,-40.889 5.548,-48.907c-1.254,-52.991 -5.988,-134.526 -7.281,-173.496c-6.052,-182.312 -33.07,-610.486 -33.07,-610.486l-713.189,-2.96Z"/>
                    </clipPath>
                    <g clip-path="url(#_clip4)">
                        <path d="M2493.84,2220.62c-0,-0 -195.445,-150.108 -341.074,-132.468c-84.875,10.281 -105.538,80.424 -140.63,104.54c-35.093,24.116 -101.096,66.8 -107.024,73.844c-5.928,7.044 8.347,114.894 108.827,113.45c35.575,-0.511 66.117,-15.962 97.277,-42.584c32.71,-27.948 55.936,-52.611 63.983,-55.207c10.654,-3.436 44.88,39.508 136.724,97.791c74.293,47.146 137.159,97.102 137.159,97.102l44.758,-256.468Z" style="fill:#fff;stroke:#000;stroke-width:41.67px;"/>
                    </g>
                </g>
                <path d="M2729.26,2718.47l351.775,93.274" style="fill:none;stroke:#000;stroke-width:41.67px;stroke-linejoin:miter;stroke-miterlimit:8;"/>
            </g>
        </g>
    </g>
</svg>