<?xml version="1.0" encoding="UTF-8" standalone="no"?><!DOCTYPE svg PUBLIC "-//W3C//DTD SVG 1.1//EN" "http://www.w3.org/Graphics/SVG/1.1/DTD/svg11.dtd">
<svg width="100%" height="100%" viewBox="0 0 4330 4330" version="1.1"
    xmlns="http://www.w3.org/2000/svg"
    xmlns:xlink="http://www.w3.org/1999/xlink" xml:space="preserve"
    xmlns:serif="http://www.serif.com/" style="fill-rule:evenodd;clip-rule:evenodd;stroke-linecap:round;stroke-linejoin:round;stroke-miterlimit:1.5;">
    <rect id="Artboard1" x="0" y="0" width="4329.95" height="4329.95" style="fill:none;"/>
    <clipPath id="_clip1">
        <rect x="0" y="0" width="4329.95" height="4329.95"/>
    </clipPath>
    <g clip-path="url(#_clip1)">
        <g id="Layer1">
            <path d="M2469.07,4053.31c0,-0 79.466,-26.893 285.797,-52.417c258.667,-31.999 573.436,-12.651 882.606,52.417c309.169,65.067 958.86,276.643 958.86,276.643l113.735,-721.381c-0,0 -784.363,-247.825 -1187.7,-250.197c-403.341,-2.373 -553.945,-2.102 -594.427,-0c-40.482,2.102 -83.027,-53.858 -99.399,-139.903c-23.949,-125.864 -50.257,-202.345 -171.313,-287.579c-121.056,-85.233 -233.256,-177.155 -377.945,-206.388c-203.536,-41.122 -358.67,21.832 -447.43,70.186c-88.76,48.353 270.171,1110.84 270.171,1110.84l367.05,147.784Z" style="fill:#fff;stroke:#000;stroke-width:41.67px;"/>
            <path id="pala" d="M1887.76,2207.32c-0,0 60.922,456.493 83.717,922.163c15.103,308.545 -46.861,572.195 -70.313,610.659c-58.847,96.513 -290.009,38.908 -366.92,148.407c-76.911,109.499 3.2,161.52 156.799,217.643c153.6,56.124 693.203,117.699 787.054,-50.162c43.471,-77.752 22.601,-321.387 -0,-445.73c-44.574,-245.231 -67.189,-501.96 -74.487,-721.813c-7.298,-219.853 0,-676.196 0,-676.196l-515.85,-4.971Z" style="stroke:#000;stroke-width:41.67px;"/>
            <g id="beer">
                <clipPath id="_clip2">
                    <path d="M1889.03,2200.14c0,-0 12.538,-395.897 0,-652.007c-12.538,-256.111 -254.061,-716.347 -360.417,-1300.36c508.165,3.105 1064.4,3.185 1235.04,0c-106.356,584.012 -347.879,1044.25 -360.417,1300.36c-12.538,256.11 -4.756,380.103 -0,652.007c0.111,6.372 5.414,50.276 -257.104,50.276c-298.046,-0 -257.104,-50.276 -257.104,-50.276Z"/>
                </clipPath>
                <g clip-path="url(#_clip2)">
                    <rect x="1431.62" y="383.421" width="1413.5" height="1935.73" style="fill:#e5bd35;"/>
                </g>
                <clipPath id="_clip3">
                    <path d="M1889.03,2088.86c0,0 12.538,-471.111 0,-696.451c-12.538,-225.34 -254.061,-630.281 -360.417,-1144.13c508.165,2.731 1064.4,2.802 1235.04,-0c-106.356,513.845 -347.879,918.786 -360.417,1144.13c-12.538,225.34 -4.756,457.216 -0,696.451c0.223,11.212 -514.208,0 -514.208,0Z"/>
                </clipPath>
                <g clip-path="url(#_clip3)">
                    <path d="M2901.65,245.846l-1486.37,0l-0,179.132c-0,0 261.728,60.928 369.699,60.928c117.023,-0 356.643,-56.523 594.211,-60.928c264.922,-4.912 522.459,0 522.459,0l-0,-179.132Z" style="fill:#fff;"/>
                </g>
            </g>
            <path d="M1889.03,2203.64c0,0 12.538,-498.205 0,-736.504c-12.538,-238.299 -254.061,-666.528 -360.417,-1209.92c508.165,2.888 1064.4,2.963 1235.04,-0c-106.356,543.396 -347.879,971.625 -360.417,1209.92c-12.538,238.299 -4.756,483.51 -0,736.504c0.111,5.929 5.414,46.78 -257.104,46.78c-298.046,-0 -257.104,-46.78 -257.104,-46.78Z" style="fill:none;stroke:#000;stroke-width:41.67px;"/>
            <path d="M1646.82,2958.99c-14.227,75.973 136.851,166.44 136.851,166.44c-0,0 -97.125,-28.396 -107.104,91.366c-9.978,119.761 84.227,114.612 84.227,114.612c0,0 -61.023,13.976 -71.24,86.052c-10.216,72.077 36.336,129.545 36.336,129.545c0,-0 -94.458,22.718 -98.93,74.919c-4.471,52.201 2.911,127.106 156.711,163.191c153.8,36.085 237.675,-27.83 254.837,-98.172c17.162,-70.343 14.376,-76.647 14.376,-76.647l-326.994,-63.291l347.492,66.956c0,-0 70.491,21.348 101.1,13.42c30.61,-7.927 94.438,-28.252 105.666,-105.929c11.227,-77.677 -52.909,-107.794 -95.971,-114.163c-28.832,-4.264 -423.383,-75.881 -423.383,-75.881l423.383,75.881c0,0 126.845,27.316 132.453,-77.112c5.608,-104.428 -95.251,-109.457 -132.453,-113.381c-37.202,-3.925 -247.566,-47.763 -260.598,-50.152c-13.032,-2.389 -65.421,-15.921 -84.239,-20.723c-18.819,-4.801 -55.669,-20.491 -55.669,-20.491l74.517,25.312l161.621,34.75c0,-0 71.313,-4.289 93.4,-70.979c22.087,-66.689 9.469,-97.802 -24.802,-110.22c-34.27,-12.418 -132.999,-135.081 -132.999,-135.081c0,-0 -3.378,-58.502 -8.718,-140.336c-0.087,-1.343 -48.934,24.858 -107.35,61.418c-82.647,51.726 -184.185,124.184 -192.52,168.696Z" style="fill:#fff;stroke:#000;stroke-width:41.67px;"/>
            <g>
                <clipPath id="_clip4">
                    <path d="M1543.56,2078.73c-0,0 59.736,574.907 82.53,1040.58c15.104,308.546 -46.86,572.196 -70.312,610.659c-58.847,96.514 55.372,41.357 -21.539,150.857c-76.911,109.499 3.2,161.52 156.799,217.643c153.6,56.124 693.203,117.699 787.054,-50.162c43.471,-77.752 22.601,-321.387 -0,-445.73c-30.825,-169.589 -2.923,-292.993 -47.175,-458.418c-4.518,-16.89 -4.702,-36.283 4.326,-51.763c4.257,-7.299 17.25,-55.008 17.022,-64.677c-1.513,-63.902 -7.221,-162.227 -8.781,-209.221c-7.298,-219.853 -39.879,-736.194 -39.879,-736.194l-860.045,-3.57Z"/>
                </clipPath>
                <g clip-path="url(#_clip4)">
                    <path d="M2557.44,2859.9c-0,0 -235.689,-181.017 -411.306,-159.744c-102.352,12.397 -127.269,96.985 -169.588,126.066c-42.318,29.082 -121.912,80.555 -129.061,89.05c-7.148,8.495 10.065,138.552 131.236,136.811c42.9,-0.616 79.731,-19.25 117.307,-51.354c39.447,-33.702 67.454,-63.444 77.159,-66.574c12.847,-4.144 54.121,47.643 164.877,117.928c89.591,56.853 165.402,117.096 165.402,117.096l53.974,-309.279Z" style="fill:#fff;stroke:#000;stroke-width:41.67px;"/>
                </g>
            </g>
        </g>
    </g>
</svg>